<mxfile host="65bd71144e">
    <diagram id="H0yQGbf4NaJOVAjafRQB" name="Page-1">
        <mxGraphModel dx="1954" dy="1604" grid="1" gridSize="10" guides="1" tooltips="1" connect="1" arrows="1" fold="1" page="0" pageScale="1" pageWidth="850" pageHeight="1100" math="0" shadow="0">
            <root>
                <mxCell id="0"/>
                <mxCell id="1" parent="0"/>
                <mxCell id="19" value="Player" style="swimlane;fontStyle=1;align=center;verticalAlign=top;childLayout=stackLayout;horizontal=1;startSize=26;horizontalStack=0;resizeParent=1;resizeParentMax=0;resizeLast=0;collapsible=1;marginBottom=0;" parent="1" vertex="1">
                    <mxGeometry x="530" y="-400" width="160" height="240" as="geometry">
                        <mxRectangle x="400" y="-120" width="70" height="30" as="alternateBounds"/>
                    </mxGeometry>
                </mxCell>
                <mxCell id="29" value="ID_bde&#10;&#10;nom_du_bureau&#10;&#10;nbr_membre&#10;&#10;email&#10;&#10;numero&#10;" style="text;strokeColor=none;fillColor=none;align=center;verticalAlign=top;spacingLeft=4;spacingRight=4;overflow=hidden;rotatable=0;points=[[0,0.5],[1,0.5]];portConstraint=eastwest;fontFamily=Helvetica;" parent="19" vertex="1">
                    <mxGeometry y="26" width="160" height="214" as="geometry"/>
                </mxCell>
                <mxCell id="27" value="Nationality" style="swimlane;fontStyle=1;align=center;verticalAlign=top;childLayout=stackLayout;horizontal=1;startSize=26;horizontalStack=0;resizeParent=1;resizeParentMax=0;resizeLast=0;collapsible=1;marginBottom=0;" parent="1" vertex="1">
                    <mxGeometry x="120" y="-200" width="160" height="240" as="geometry"/>
                </mxCell>
                <mxCell id="28" value="ID_ecole&#10;&#10;nom_ecole&#10;&#10;local&#10;&#10;dt_creation&#10;" style="text;strokeColor=none;fillColor=none;align=center;verticalAlign=top;spacingLeft=4;spacingRight=4;overflow=hidden;rotatable=0;points=[[0,0.5],[1,0.5]];portConstraint=eastwest;" parent="27" vertex="1">
                    <mxGeometry y="26" width="160" height="214" as="geometry"/>
                </mxCell>
                <mxCell id="33" value="membreBDE" style="swimlane;fontStyle=1;align=center;verticalAlign=top;childLayout=stackLayout;horizontal=1;startSize=26;horizontalStack=0;resizeParent=1;resizeParentMax=0;resizeLast=0;collapsible=1;marginBottom=0;" parent="1" vertex="1">
                    <mxGeometry x="310" y="240" width="160" height="240" as="geometry"/>
                </mxCell>
                <mxCell id="34" value="id_membre&#10;&#10;nom&#10;&#10;prenom&#10;&#10;email&#10;&#10;date_dadhesion&#10;&#10;" style="text;strokeColor=none;fillColor=none;align=center;verticalAlign=top;spacingLeft=4;spacingRight=4;overflow=hidden;rotatable=0;points=[[0,0.5],[1,0.5]];portConstraint=eastwest;" parent="33" vertex="1">
                    <mxGeometry y="26" width="160" height="214" as="geometry"/>
                </mxCell>
                <mxCell id="36" value="roles" style="swimlane;fontStyle=1;align=center;verticalAlign=top;childLayout=stackLayout;horizontal=1;startSize=26;horizontalStack=0;resizeParent=1;resizeParentMax=0;resizeLast=0;collapsible=1;marginBottom=0;" parent="1" vertex="1">
                    <mxGeometry x="-80" y="160" width="160" height="240" as="geometry"/>
                </mxCell>
                <mxCell id="37" value="id_role&#10;&#10;nbr_de_role&#10;&#10;status" style="text;strokeColor=none;fillColor=none;align=center;verticalAlign=top;spacingLeft=4;spacingRight=4;overflow=hidden;rotatable=0;points=[[0,0.5],[1,0.5]];portConstraint=eastwest;" parent="36" vertex="1">
                    <mxGeometry y="26" width="160" height="214" as="geometry"/>
                </mxCell>
                <mxCell id="39" value="Event" style="swimlane;fontStyle=1;align=center;verticalAlign=top;childLayout=stackLayout;horizontal=1;startSize=26;horizontalStack=0;resizeParent=1;resizeParentMax=0;resizeLast=0;collapsible=1;marginBottom=0;" parent="1" vertex="1">
                    <mxGeometry x="550" y="50" width="160" height="240" as="geometry"/>
                </mxCell>
                <mxCell id="40" value="id_event&#10;&#10;date_event&#10;&#10;local&#10;&#10;description&#10;&#10;budget&#10;&#10;respo&#10;&#10;&#10;" style="text;strokeColor=none;fillColor=none;align=center;verticalAlign=top;spacingLeft=4;spacingRight=4;overflow=hidden;rotatable=0;points=[[0,0.5],[1,0.5]];portConstraint=eastwest;" parent="39" vertex="1">
                    <mxGeometry y="26" width="160" height="214" as="geometry"/>
                </mxCell>
                <mxCell id="42" value="Sponsore" style="swimlane;fontStyle=1;align=center;verticalAlign=top;childLayout=stackLayout;horizontal=1;startSize=26;horizontalStack=0;resizeParent=1;resizeParentMax=0;resizeLast=0;collapsible=1;marginBottom=0;" parent="1" vertex="1">
                    <mxGeometry x="1000" y="160" width="160" height="240" as="geometry"/>
                </mxCell>
                <mxCell id="43" value="id_sponsor&#10;&#10;nom_du_spon&#10;&#10;&#10;" style="text;strokeColor=none;fillColor=none;align=center;verticalAlign=top;spacingLeft=4;spacingRight=4;overflow=hidden;rotatable=0;points=[[0,0.5],[1,0.5]];portConstraint=eastwest;" parent="42" vertex="1">
                    <mxGeometry y="26" width="160" height="214" as="geometry"/>
                </mxCell>
                <mxCell id="68" value="attribuer" style="endArrow=open;html=1;endSize=12;startArrow=diamondThin;startSize=14;startFill=0;edgeStyle=orthogonalEdgeStyle;fontFamily=Helvetica;fontSize=20;exitX=1;exitY=0.5;exitDx=0;exitDy=0;entryX=0;entryY=0.5;entryDx=0;entryDy=0;labelBackgroundColor=#FF0000;" parent="1" source="37" target="34" edge="1">
                    <mxGeometry relative="1" as="geometry">
                        <mxPoint x="550" y="330" as="sourcePoint"/>
                        <mxPoint x="710" y="330" as="targetPoint"/>
                    </mxGeometry>
                </mxCell>
                <mxCell id="69" value="1,n" style="edgeLabel;resizable=0;html=1;align=left;verticalAlign=top;fontFamily=Helvetica;fontSize=20;" parent="68" connectable="0" vertex="1">
                    <mxGeometry x="-1" relative="1" as="geometry"/>
                </mxCell>
                <mxCell id="70" value="1,1" style="edgeLabel;resizable=0;html=1;align=right;verticalAlign=top;fontFamily=Helvetica;fontSize=20;" parent="68" connectable="0" vertex="1">
                    <mxGeometry x="1" relative="1" as="geometry"/>
                </mxCell>
                <mxCell id="84" value="contient" style="endArrow=open;html=1;endSize=12;startArrow=diamondThin;startSize=14;startFill=0;edgeStyle=orthogonalEdgeStyle;fontFamily=Helvetica;fontSize=20;exitX=1.027;exitY=0.559;exitDx=0;exitDy=0;exitPerimeter=0;entryX=0;entryY=0.5;entryDx=0;entryDy=0;labelBackgroundColor=#006633;" parent="1" source="28" target="29" edge="1">
                    <mxGeometry relative="1" as="geometry">
                        <mxPoint x="550" y="-140" as="sourcePoint"/>
                        <mxPoint x="710" y="-140" as="targetPoint"/>
                    </mxGeometry>
                </mxCell>
                <mxCell id="85" value="1,1" style="edgeLabel;resizable=0;html=1;align=left;verticalAlign=top;fontFamily=Helvetica;fontSize=20;" parent="84" connectable="0" vertex="1">
                    <mxGeometry x="-1" relative="1" as="geometry"/>
                </mxCell>
                <mxCell id="86" value="1,1" style="edgeLabel;resizable=0;html=1;align=right;verticalAlign=top;fontFamily=Helvetica;fontSize=20;" parent="84" connectable="0" vertex="1">
                    <mxGeometry x="1" relative="1" as="geometry"/>
                </mxCell>
                <mxCell id="88" value="" style="html=1;verticalAlign=bottom;endArrow=open;dashed=1;endSize=8;fontFamily=Helvetica;fontSize=20;" parent="1" edge="1">
                    <mxGeometry relative="1" as="geometry">
                        <mxPoint x="900" y="480" as="sourcePoint"/>
                        <mxPoint x="900" y="560" as="targetPoint"/>
                    </mxGeometry>
                </mxCell>
                <mxCell id="92" value="Club" style="swimlane;fontStyle=1;align=center;verticalAlign=top;childLayout=stackLayout;horizontal=1;startSize=26;horizontalStack=0;resizeParent=1;resizeParentMax=0;resizeLast=0;collapsible=1;marginBottom=0;" parent="1" vertex="1">
                    <mxGeometry x="880" y="-325" width="160" height="240" as="geometry"/>
                </mxCell>
                <mxCell id="93" value="id_particip&#10;&#10;nom&#10;&#10;prenom&#10;&#10;email&#10;&#10;status&#10;&#10;" style="text;strokeColor=none;fillColor=none;align=center;verticalAlign=top;spacingLeft=4;spacingRight=4;overflow=hidden;rotatable=0;points=[[0,0.5],[1,0.5]];portConstraint=eastwest;" parent="92" vertex="1">
                    <mxGeometry y="26" width="160" height="214" as="geometry"/>
                </mxCell>
                <mxCell id="104" value="spon_event" style="swimlane;fontStyle=1;align=center;verticalAlign=top;childLayout=stackLayout;horizontal=1;startSize=26;horizontalStack=0;resizeParent=1;resizeParentMax=0;resizeLast=0;collapsible=1;marginBottom=0;" parent="1" vertex="1">
                    <mxGeometry x="840" y="560" width="160" height="120" as="geometry"/>
                </mxCell>
                <mxCell id="105" value="#id_sponsor&#10;&#10;#id_event&#10;&#10;list_event_spon" style="text;strokeColor=none;fillColor=none;align=center;verticalAlign=top;spacingLeft=4;spacingRight=4;overflow=hidden;rotatable=0;points=[[0,0.5],[1,0.5]];portConstraint=eastwest;" parent="104" vertex="1">
                    <mxGeometry y="26" width="160" height="94" as="geometry"/>
                </mxCell>
                <mxCell id="159" value="PARTICIPENT(&lt;u style=&quot;font-size: 22px;&quot;&gt;id_particip&lt;/u&gt;, nom, prÃ©nom, email, status)" style="text;html=1;align=center;verticalAlign=middle;resizable=0;points=[];autosize=1;strokeColor=none;fillColor=none;fontSize=22;fontFamily=Helvetica;" parent="1" vertex="1">
                    <mxGeometry x="1285" y="-205" width="560" height="40" as="geometry"/>
                </mxCell>
                <mxCell id="160" value="BDE(&lt;u style=&quot;font-size: 22px;&quot;&gt;id_bde&lt;/u&gt;, nom_du_br, nbr_membre, email, num)" style="text;html=1;align=center;verticalAlign=middle;resizable=0;points=[];autosize=1;strokeColor=none;fillColor=none;fontSize=22;fontFamily=Helvetica;" parent="1" vertex="1">
                    <mxGeometry x="1300" y="-325" width="530" height="40" as="geometry"/>
                </mxCell>
                <mxCell id="161" value="ROLES(&lt;u style=&quot;font-size: 22px;&quot;&gt;id_role&lt;/u&gt;, nbr_de_role, status)" style="text;html=1;align=center;verticalAlign=middle;resizable=0;points=[];autosize=1;strokeColor=none;fillColor=none;fontSize=22;fontFamily=Helvetica;" parent="1" vertex="1">
                    <mxGeometry x="1376" y="-145" width="380" height="40" as="geometry"/>
                </mxCell>
                <mxCell id="162" value="ECOLE(&lt;u style=&quot;font-size: 22px;&quot;&gt;id_ecole&lt;/u&gt;, nom_ecole, local, dt_creation,&amp;nbsp; #id_bde)" style="text;html=1;align=center;verticalAlign=middle;resizable=0;points=[];autosize=1;strokeColor=none;fillColor=none;fontSize=22;fontFamily=Helvetica;" parent="1" vertex="1">
                    <mxGeometry x="1270" y="-265" width="590" height="40" as="geometry"/>
                </mxCell>
                <mxCell id="163" value="MEMBREBDE(&lt;span style=&quot;font-size: 22px;&quot;&gt;&lt;u&gt;id_mbr&lt;/u&gt;&lt;/span&gt;, nom, prenom, email, date_d'adh, #id_bde, #id_role)" style="text;html=1;align=center;verticalAlign=middle;resizable=0;points=[];autosize=1;strokeColor=none;fillColor=none;fontSize=22;fontFamily=Helvetica;" parent="1" vertex="1">
                    <mxGeometry x="1191" y="-80" width="750" height="40" as="geometry"/>
                </mxCell>
                <mxCell id="164" value="&lt;font style=&quot;font-size: 22px;&quot;&gt;EVENT(&lt;u style=&quot;font-size: 22px;&quot;&gt;id_event&lt;/u&gt;, date_event, local, description, budget, respo&lt;u&gt;)&lt;/u&gt;&lt;/font&gt;" style="text;html=1;align=center;verticalAlign=middle;resizable=0;points=[];autosize=1;strokeColor=none;fillColor=none;fontSize=22;fontFamily=Helvetica;" parent="1" vertex="1">
                    <mxGeometry x="1246" y="-20" width="640" height="40" as="geometry"/>
                </mxCell>
                <mxCell id="168" value="&lt;font style=&quot;font-size: 22px;&quot;&gt;PARTICIPE(&lt;u&gt;#&lt;span style=&quot;font-size: 22px;&quot;&gt;id_particip&lt;/span&gt;,#&lt;span style=&quot;font-size: 22px;&quot;&gt;id_event&lt;/span&gt;&lt;/u&gt;)&lt;/font&gt;" style="text;html=1;align=center;verticalAlign=middle;resizable=0;points=[];autosize=1;strokeColor=none;fillColor=none;fontSize=22;fontFamily=Helvetica;" parent="1" vertex="1">
                    <mxGeometry x="1381" y="30" width="370" height="40" as="geometry"/>
                </mxCell>
                <mxCell id="171" value="&lt;font style=&quot;font-size: 22px;&quot;&gt;RESPO(#&lt;u style=&quot;font-size: 22px;&quot;&gt;id_membre&lt;/u&gt;,#&lt;u style=&quot;font-size: 22px;&quot;&gt;id_event&lt;/u&gt;)&lt;/font&gt;" style="text;html=1;align=center;verticalAlign=middle;resizable=0;points=[];autosize=1;strokeColor=none;fillColor=none;fontSize=22;fontFamily=Helvetica;" parent="1" vertex="1">
                    <mxGeometry x="1386" y="80" width="340" height="40" as="geometry"/>
                </mxCell>
                <mxCell id="172" value="SPON_EVENT(&lt;u&gt;&lt;span style=&quot;font-size: 22px;&quot;&gt;#id_sponsor&lt;/span&gt;, #id_event&lt;/u&gt;, list_event_spon)" style="text;html=1;align=center;verticalAlign=middle;resizable=0;points=[];autosize=1;strokeColor=none;fillColor=none;fontSize=22;fontFamily=Helvetica;" parent="1" vertex="1">
                    <mxGeometry x="1300" y="130" width="580" height="40" as="geometry"/>
                </mxCell>
                <mxCell id="173" value="&lt;font style=&quot;font-size: 22px;&quot;&gt;SPONSORE(&lt;u style=&quot;font-size: 22px;&quot;&gt;id_sponsor&lt;/u&gt;,&lt;u style=&quot;font-size: 22px;&quot;&gt;&amp;nbsp;&lt;/u&gt;nom_du_spon)&lt;/font&gt;" style="text;html=1;align=center;verticalAlign=middle;resizable=0;points=[];autosize=1;strokeColor=none;fillColor=none;fontSize=22;fontFamily=Helvetica;" parent="1" vertex="1">
                    <mxGeometry x="1346" y="-365" width="420" height="40" as="geometry"/>
                </mxCell>
                <mxCell id="174" value="&lt;span style=&quot;font-size: 80px;&quot;&gt;MCD&lt;/span&gt;" style="text;html=1;align=center;verticalAlign=middle;resizable=0;points=[];autosize=1;strokeColor=none;fillColor=none;fontSize=80;" parent="1" vertex="1">
                    <mxGeometry x="410" y="-500" width="210" height="110" as="geometry"/>
                </mxCell>
                <mxCell id="175" value="&lt;span style=&quot;font-size: 80px;&quot;&gt;MLD&lt;/span&gt;" style="text;html=1;align=center;verticalAlign=middle;resizable=0;points=[];autosize=1;strokeColor=none;fillColor=none;fontSize=80;" parent="1" vertex="1">
                    <mxGeometry x="1461" y="-580" width="190" height="110" as="geometry"/>
                </mxCell>
                <mxCell id="176" value="sponsoree_par(&lt;u&gt;&lt;span style=&quot;font-size: 22px;&quot;&gt;#id_sponsor&lt;/span&gt;, #id_event&lt;/u&gt;)" style="text;html=1;align=center;verticalAlign=middle;resizable=0;points=[];autosize=1;strokeColor=none;fillColor=none;fontSize=22;fontFamily=Helvetica;" parent="1" vertex="1">
                    <mxGeometry x="1385" y="190" width="410" height="40" as="geometry"/>
                </mxCell>
                <mxCell id="177" value="Relation" style="endArrow=open;html=1;endSize=12;startArrow=diamondThin;startSize=14;startFill=0;edgeStyle=orthogonalEdgeStyle;" edge="1" parent="1" target="93">
                    <mxGeometry relative="1" as="geometry">
                        <mxPoint x="690" y="-245.71" as="sourcePoint"/>
                        <mxPoint x="850" y="-245.71" as="targetPoint"/>
                    </mxGeometry>
                </mxCell>
                <mxCell id="178" value="0..n" style="edgeLabel;resizable=0;html=1;align=left;verticalAlign=top;" connectable="0" vertex="1" parent="177">
                    <mxGeometry x="-1" relative="1" as="geometry"/>
                </mxCell>
                <mxCell id="179" value="1" style="edgeLabel;resizable=0;html=1;align=right;verticalAlign=top;" connectable="0" vertex="1" parent="177">
                    <mxGeometry x="1" relative="1" as="geometry"/>
                </mxCell>
                <mxCell id="180" value="Relation" style="endArrow=open;html=1;endSize=12;startArrow=diamondThin;startSize=14;startFill=0;edgeStyle=orthogonalEdgeStyle;entryX=0.547;entryY=1.023;entryDx=0;entryDy=0;entryPerimeter=0;exitX=0;exitY=0;exitDx=0;exitDy=0;" edge="1" parent="1" source="39" target="29">
                    <mxGeometry relative="1" as="geometry">
                        <mxPoint x="540" y="90" as="sourcePoint"/>
                        <mxPoint x="700" y="-60.71" as="targetPoint"/>
                    </mxGeometry>
                </mxCell>
                <mxCell id="181" value="0..n" style="edgeLabel;resizable=0;html=1;align=left;verticalAlign=top;" connectable="0" vertex="1" parent="180">
                    <mxGeometry x="-1" relative="1" as="geometry"/>
                </mxCell>
                <mxCell id="182" value="1" style="edgeLabel;resizable=0;html=1;align=right;verticalAlign=top;" connectable="0" vertex="1" parent="180">
                    <mxGeometry x="1" relative="1" as="geometry"/>
                </mxCell>
            </root>
        </mxGraphModel>
    </diagram>
</mxfile>